# xmcd CD database file
#
# Track frame offsets:
#	150
#	23224
#	46244
#	64826
#
# Disc length: 1168 seconds
#
# Revision: 1
# Processed by: cddbd v1.5.2PL0 Copyright (c) Steve Scherf et al.
# Submitted via: jetAudio 7
#
DISCID=2d048e04
DTITLE=¹ÚÁ¤Çö - Gold
DYEAR=2006
DGENRE=R&B
TTITLE0=Gold
TTITLE1=The Gold Within
TTITLE2=Beautiful You (English Ver.)
TTITLE3=Gold (Instrumental)
EXTD=
EXTT0=
EXTT1=
EXTT2=
EXTT3=
PLAYORDER=
